<svg version="1.1" id="Layer_1" xmlns="http://www.w3.org/2000/svg" xmlns:xlink="http://www.w3.org/1999/xlink" x="0px" y="0px"
	 width="100%" viewBox="0 0 128 128" enable-background="new 0 0 128 128" xml:space="preserve">
<path fill="#C5C3BB" opacity="1.000000" stroke="none" 
	d="
M129.000000,7.000000 
	C129.000000,47.666668 129.000000,88.333336 129.000000,129.000000 
	C126.980370,129.000000 124.988091,129.000000 122.366989,128.648804 
	C121.066475,127.886841 120.426048,127.184540 119.718430,127.108635 
	C107.396339,125.786835 95.307838,121.914299 82.658279,123.850296 
	C81.201790,124.073219 79.462082,122.445671 77.918198,121.237717 
	C77.972939,115.234161 77.963165,109.668968 77.883209,103.890854 
	C77.669624,103.405495 77.463768,103.193787 77.175865,102.624222 
	C77.306808,99.173935 77.457352,96.142227 77.509445,92.726730 
	C72.944084,82.543976 68.521217,72.724388 63.953953,62.972439 
	C63.390209,61.768734 62.056767,60.925507 61.036705,59.963753 
	C60.993408,60.012268 61.160793,59.930561 61.061867,60.322105 
	C61.904846,66.250679 56.006485,67.614769 54.893593,71.414513 
	C55.714638,72.530930 56.450939,73.817497 56.240494,74.923996 
	C55.343346,79.640953 54.050438,84.282547 53.149246,88.998886 
	C52.797146,90.841591 51.364761,93.467957 55.078564,94.250015 
	C55.379227,94.990044 55.599892,95.475143 55.546204,95.969833 
	C54.904537,95.982216 54.537228,95.985016 53.970894,95.744019 
	C53.468956,96.330681 53.166035,97.161125 52.493332,97.995415 
	C51.139702,97.995682 50.155857,97.992111 49.113258,97.523911 
	C47.256554,80.566284 49.417274,64.765968 57.276215,49.956551 
	C57.584267,49.376057 57.870201,48.744476 57.979431,48.104767 
	C58.408470,45.592064 58.762558,43.066559 59.263874,39.757748 
	C54.019634,41.864391 49.733219,43.719551 45.340645,45.274918 
	C43.899723,45.785133 41.402809,47.997284 41.334927,43.860039 
	C41.638527,43.551746 41.706009,43.382122 41.900158,42.957146 
	C42.188530,42.155472 42.350231,41.609150 42.655510,40.872093 
	C42.799084,40.681355 42.812714,40.204082 42.932537,39.950165 
	C43.220493,39.160988 43.388622,38.625736 43.702381,37.892052 
	C43.848007,37.693619 43.871452,37.201904 43.993935,36.962669 
	C44.265865,36.207123 44.415310,35.690807 44.738430,34.935616 
	C45.274578,33.797794 45.637054,32.898853 46.002548,31.735397 
	C45.682037,31.386684 45.358505,31.302488 44.655533,31.142906 
	C43.566292,30.729729 42.856495,30.391935 42.146702,30.054140 
	C42.209309,29.699848 42.271915,29.345556 42.334522,28.991264 
	C45.557896,28.991264 48.781273,28.991264 51.856911,29.300713 
	C50.496040,31.770393 49.377678,34.342400 53.083744,34.639938 
	C56.701656,34.930401 60.403183,34.179424 64.501137,33.896622 
	C66.953156,33.983421 68.972038,34.059238 70.991356,34.550331 
	C71.303139,37.300240 71.614487,39.634876 71.965637,42.438660 
	C72.005432,52.818199 72.005432,62.728584 72.005432,72.934044 
	C76.620087,72.348206 77.386276,74.809952 77.940132,77.869179 
	C79.402672,85.947624 81.082397,93.986740 82.600418,101.661057 
	C83.654045,100.630119 84.843132,99.466644 85.984253,98.669662 
	C85.740257,101.760582 85.544235,104.484985 85.243477,108.665100 
	C89.878685,103.163200 89.488029,109.477959 91.706543,109.718979 
	C96.846603,107.248741 94.465790,102.541252 95.307281,98.797401 
	C95.803268,98.885506 96.003159,98.912018 96.238922,99.338516 
	C96.894020,100.707878 97.455299,102.474960 98.141304,102.524788 
	C106.074127,103.100998 113.852150,102.664604 120.352654,97.199730 
	C126.397713,92.117737 128.538864,85.434616 126.924057,77.960327 
	C125.496902,71.354553 120.136803,68.476852 113.978645,66.957932 
	C113.368866,66.807533 112.793221,66.518814 112.201729,66.294304 
	C112.680664,66.159523 113.159599,66.024750 113.638535,65.889969 
	C112.816597,60.485043 111.994659,55.080112 111.117958,49.341866 
	C107.526604,42.272980 102.067139,38.763103 93.926437,39.005440 
	C91.273399,25.497297 83.263260,16.450949 70.191147,11.994366 
	C73.476196,10.499276 76.410393,8.599278 79.536514,8.199324 
	C84.398170,7.577324 89.393440,7.852918 94.326202,7.978767 
	C98.458839,8.084204 102.598900,8.898198 106.707550,8.726306 
	C114.149414,8.414965 121.570335,7.602978 129.000000,7.000000 
z"/>
<path fill="#C7C4BC" opacity="1.000000" stroke="none" 
	d="
M1.000000,119.000000 
	C1.000000,83.979103 1.000000,48.958210 1.426039,13.469843 
	C11.654940,16.549675 21.617121,12.537113 31.562420,13.492226 
	C35.944756,13.913090 39.951729,13.313076 42.994968,17.239239 
	C42.963081,17.406500 42.897682,17.740709 42.565140,17.850510 
	C40.158924,20.308105 38.085251,22.655903 35.768818,25.043726 
	C35.241413,25.471834 34.956768,25.859915 34.388439,26.466936 
	C33.542747,27.730894 32.980743,28.775911 32.231720,30.079552 
	C31.767319,31.137720 31.489935,31.937265 31.043390,33.029175 
	C30.494635,34.875290 30.115040,36.429035 29.548965,38.275955 
	C28.579729,39.834358 27.796976,41.099594 26.652071,42.329678 
	C19.247475,43.799202 14.691499,48.038872 12.314228,55.146500 
	C12.080879,58.848030 12.113251,62.263149 11.883936,65.660606 
	C11.799028,66.918587 11.480303,68.664963 10.618309,69.284805 
	C4.858923,73.426308 2.593259,78.742004 2.887685,85.922264 
	C3.261606,95.041161 7.803570,100.760315 17.346569,102.216034 
	C21.425385,102.625710 25.206070,102.795387 29.296370,103.084038 
	C31.389780,103.213486 33.173573,103.223969 34.969254,103.603004 
	C35.270069,106.184151 35.558994,108.396736 35.865685,110.745361 
	C37.384293,110.843285 38.670567,110.926224 40.004860,111.317589 
	C40.622944,112.333328 41.193008,113.040649 42.006409,113.922302 
	C42.520180,114.388184 42.790611,114.679733 42.736191,115.126640 
	C39.659618,116.022110 36.839947,117.554604 34.171329,117.325745 
	C29.608879,116.934464 24.627777,117.821953 20.585224,114.292999 
	C19.928951,113.720123 17.449755,114.315964 16.502306,115.152290 
	C11.940606,119.179008 6.551209,119.290306 1.000000,119.000000 
z"/>
<path fill="#C4C1B7" opacity="1.000000" stroke="none" 
	d="
M43.026855,17.071978 
	C39.951729,13.313076 35.944756,13.913090 31.562420,13.492226 
	C21.617121,12.537113 11.654940,16.549675 1.426039,13.001185 
	C1.000000,9.013718 1.000000,5.027434 1.000000,1.020576 
	C43.666660,1.020576 86.333328,1.020576 129.000000,1.019380 
	C129.000000,2.679142 129.000000,4.340099 129.000000,6.500528 
	C121.570335,7.602978 114.149414,8.414965 106.707550,8.726306 
	C102.598900,8.898198 98.458839,8.084204 94.326202,7.978767 
	C89.393440,7.852918 84.398170,7.577324 79.536514,8.199324 
	C76.410393,8.599278 73.476196,10.499276 69.744804,12.010490 
	C59.869488,11.191138 51.076874,12.110541 43.026855,17.071978 
z"/>
<path fill="#C6C3BB" opacity="1.000000" stroke="none" 
	d="
M1.000000,119.428467 
	C6.551209,119.290306 11.940606,119.179008 16.502306,115.152290 
	C17.449755,114.315964 19.928951,113.720123 20.585224,114.292999 
	C24.627777,117.821953 29.608879,116.934464 34.171329,117.325745 
	C36.839947,117.554604 39.659618,116.022110 43.043541,115.038376 
	C44.443954,113.692970 45.212166,112.591187 45.629578,111.992523 
	C47.380875,112.443275 48.612255,112.760208 49.858963,113.482368 
	C50.253868,115.107719 50.633450,116.327835 51.158417,117.712196 
	C51.533638,118.247215 51.763474,118.617996 52.105377,119.251740 
	C52.474735,120.025970 52.732029,120.537231 52.846848,121.403923 
	C49.560795,122.403625 46.353966,123.798241 43.286510,123.539642 
	C36.402107,122.959282 28.998400,127.631836 22.552408,121.615967 
	C21.889784,120.997559 20.054327,121.450241 18.810453,121.671806 
	C12.864681,122.730927 6.935245,123.881767 1.000000,125.000000 
	C1.000000,123.285645 1.000000,121.571281 1.000000,119.428467 
z"/>
<path fill="#C3C0B7" opacity="1.000000" stroke="none" 
	d="
M1.000000,125.500000 
	C6.935245,123.881767 12.864681,122.730927 18.810453,121.671806 
	C20.054327,121.450241 21.889784,120.997559 22.552408,121.615967 
	C28.998400,127.631836 36.402107,122.959282 43.286510,123.539642 
	C46.353966,123.798241 49.560795,122.403625 53.076492,121.207962 
	C53.661335,120.101280 53.874058,119.545982 54.261276,118.868225 
	C54.654922,118.559738 54.835728,118.341888 55.205208,117.971603 
	C55.617653,117.574203 55.803070,117.297401 55.997562,117.016083 
	C56.006638,117.011559 56.025784,117.002869 56.292957,116.915131 
	C57.037342,116.531487 57.514549,116.235580 58.128014,116.199203 
	C59.463730,116.992416 60.663189,117.526085 61.908012,118.408081 
	C62.618629,119.464134 63.283882,120.171883 63.974075,121.286430 
	C64.044319,122.776367 64.089622,123.859489 63.727383,125.023193 
	C54.732670,125.735924 46.136890,126.275436 37.565006,127.072098 
	C35.666679,127.248520 33.852776,128.333420 32.000000,129.000000 
	C30.611111,129.000000 29.222221,129.000000 27.328253,128.673416 
	C24.148779,126.636444 22.629072,122.678436 18.294504,124.213913 
	C15.266440,125.286560 12.116174,126.010582 9.069413,127.035721 
	C7.652992,127.512306 6.352849,128.334473 4.999999,129.000000 
	C2.983032,128.911514 0.071042,130.016388 1.000000,125.500000 
z"/>
<path fill="#C5C2B9" opacity="1.000000" stroke="none" 
	d="
M77.853683,121.676071 
	C79.462082,122.445671 81.201790,124.073219 82.658279,123.850296 
	C95.307838,121.914299 107.396339,125.786835 119.718430,127.108635 
	C120.426048,127.184540 121.066475,127.886841 121.869080,128.648804 
	C115.312355,129.000000 108.624710,129.000000 101.328583,128.640640 
	C95.429932,127.611115 90.151566,126.819946 84.846481,126.302864 
	C78.856407,125.719017 72.842308,125.381554 66.878098,124.578194 
	C67.622787,122.836143 68.328041,121.452843 69.220078,120.353897 
	C71.650528,121.024475 73.894188,121.410690 76.425079,121.795731 
	C77.092766,121.755074 77.473228,121.715576 77.853683,121.676071 
z"/>
<path fill="#C3BFB5" opacity="1.000000" stroke="none" 
	d="
M66.838661,124.936935 
	C72.842308,125.381554 78.856407,125.719017 84.846481,126.302864 
	C90.151566,126.819946 95.429932,127.611115 100.860046,128.640640 
	C78.312439,129.000000 55.624878,129.000000 32.468658,129.000000 
	C33.852776,128.333420 35.666679,127.248520 37.565006,127.072098 
	C46.136890,126.275436 54.732670,125.735924 64.064255,125.057487 
	C65.485336,124.986458 66.162003,124.961693 66.838661,124.936935 
z"/>
<path fill="#C3BFB5" opacity="1.000000" stroke="none" 
	d="
M5.468577,129.000000 
	C6.352849,128.334473 7.652992,127.512306 9.069413,127.035721 
	C12.116174,126.010582 15.266440,125.286560 18.294504,124.213913 
	C22.629072,122.678436 24.148779,126.636444 26.911587,128.673416 
	C19.979052,129.000000 12.958103,129.000000 5.468577,129.000000 
z"/>
<path fill="#374E58" opacity="1.000000" stroke="none" 
	d="
M42.994968,17.239239 
	C51.076874,12.110541 59.869488,11.191138 69.479980,12.277930 
	C83.263260,16.450949 91.273399,25.497297 93.926437,39.005440 
	C102.067139,38.763103 107.526604,42.272980 110.955063,49.677803 
	C110.065781,52.430485 108.984077,54.458431 108.586456,56.612640 
	C108.174004,58.847298 108.410118,61.204102 108.388985,63.507721 
	C108.374031,65.136986 108.011917,66.889832 108.479630,68.374985 
	C110.587830,75.069313 112.962769,81.605652 109.440193,88.653381 
	C108.543495,90.447449 109.242470,92.973305 108.639389,94.993057 
	C107.231270,99.708954 104.278168,100.550575 96.203041,98.938538 
	C96.003159,98.912018 95.803268,98.885506 95.057785,98.548927 
	C92.894920,96.499229 91.277657,94.759598 89.218803,92.544983 
	C88.317215,94.174149 87.174713,96.238647 86.032211,98.303162 
	C84.843132,99.466644 83.654045,100.630119 82.600418,101.661057 
	C81.082397,93.986740 79.402672,85.947624 77.940132,77.869179 
	C77.386276,74.809952 76.620087,72.348206 72.005432,72.934044 
	C72.005432,62.728584 72.005432,52.818199 72.352859,42.364426 
	C80.679268,42.770473 85.288513,48.585331 90.160316,53.978893 
	C93.756721,57.960457 95.635750,58.164753 100.989243,54.382652 
	C94.571243,56.982479 92.844887,51.878807 89.841957,48.486095 
	C86.023735,44.172276 81.952187,40.029575 77.590225,36.277729 
	C75.972755,34.886505 73.223846,34.810734 70.990921,34.135059 
	C68.972038,34.059238 66.953156,33.983421 64.636856,33.590439 
	C65.889595,30.473246 67.439743,27.673218 68.968048,24.912659 
	C62.827793,21.129581 62.912666,21.180016 59.430550,27.039865 
	C58.824337,28.060024 57.162552,28.452923 55.623215,29.035820 
	C54.509388,29.006750 53.760647,29.077393 52.764771,29.078796 
	C52.346638,29.003456 52.175640,28.997360 52.004646,28.991264 
	C48.781273,28.991264 45.557896,28.991264 42.334522,28.991264 
	C42.271915,29.345556 42.209309,29.699848 42.146702,30.054140 
	C42.856495,30.391935 43.566292,30.729729 44.792881,31.300426 
	C45.512798,31.728518 45.742748,31.884045 45.999527,31.999912 
	C45.637054,32.898853 45.274578,33.797794 44.409126,34.952545 
	C43.894588,35.872871 43.883018,36.537388 43.871452,37.201904 
	C43.871452,37.201904 43.848007,37.693619 43.363098,37.916542 
	C42.856369,38.827667 42.834541,39.515877 42.812714,40.204082 
	C42.812714,40.204082 42.799084,40.681355 42.320396,40.905502 
	C41.818970,41.823936 41.796230,42.518219 41.773487,43.212502 
	C41.706009,43.382122 41.638527,43.551746 41.002544,43.950638 
	C39.769634,45.591274 38.160870,47.539940 38.605022,48.320591 
	C40.483692,51.622585 38.105755,53.520611 36.796368,55.787312 
	C34.604122,59.582355 31.221739,63.074871 33.968407,68.288055 
	C33.670128,69.063385 33.389309,69.551086 32.815422,70.094963 
	C32.407860,71.138077 32.293369,72.125023 32.148117,73.081940 
	C32.117355,73.051910 32.192436,73.118134 31.877911,73.158676 
	C31.445168,74.270226 31.326946,75.341248 31.184799,76.745270 
	C30.961969,77.714447 30.763063,78.350609 30.396757,79.031921 
	C30.114771,79.164940 29.892134,79.274254 29.904570,79.336929 
	C29.954582,79.588951 30.077311,79.826538 30.136395,80.419632 
	C30.029264,82.527390 29.958908,84.284966 29.573290,86.131577 
	C25.932522,88.354050 26.549568,91.924828 26.016634,95.314041 
	C26.005295,95.547577 25.872337,95.996323 25.623550,96.068207 
	C25.558569,96.780617 25.742376,97.421150 25.801495,98.413528 
	C23.118042,99.176338 20.559277,99.587296 17.793636,99.798187 
	C17.390970,99.065407 17.195181,98.532707 16.930668,97.615433 
	C16.883688,93.820526 17.499546,90.281723 16.796074,87.028183 
	C15.560185,81.312233 18.352612,76.375237 21.297276,73.056396 
	C26.601124,67.078583 24.951241,61.492931 23.733358,55.147728 
	C23.131842,52.013809 23.873390,48.548580 24.431965,45.306438 
	C24.620840,44.210144 26.116024,43.338913 27.014223,42.364826 
	C27.796976,41.099594 28.579729,39.834358 29.950283,38.253090 
	C34.360985,36.670303 33.417336,34.785339 31.212551,32.736809 
	C31.489935,31.937265 31.767319,31.137720 32.643791,30.021854 
	C33.719296,28.553019 34.195709,27.400507 34.672123,26.247993 
	C34.956768,25.859915 35.241413,25.471834 36.107651,24.983326 
	C38.758728,22.502169 40.828205,20.121439 42.897682,17.740709 
	C42.897682,17.740709 42.963081,17.406500 42.994968,17.239239 
z"/>
<path fill="#3A515A" opacity="1.000000" stroke="none" 
	d="
M26.027973,95.080498 
	C26.549568,91.924828 25.932522,88.354050 29.918808,85.974960 
	C32.247688,80.213402 33.960602,74.710327 35.546783,69.170959 
	C35.871490,68.037010 36.691711,65.454010 33.985867,68.000420 
	C31.221739,63.074871 34.604122,59.582355 36.796368,55.787312 
	C38.105755,53.520611 40.483692,51.622585 38.605022,48.320591 
	C38.160870,47.539940 39.769634,45.591274 40.766422,44.089310 
	C41.402809,47.997284 43.899723,45.785133 45.340645,45.274918 
	C49.733219,43.719551 54.019634,41.864391 59.263874,39.757748 
	C58.762558,43.066559 58.408470,45.592064 57.979431,48.104767 
	C57.870201,48.744476 57.584267,49.376057 57.276215,49.956551 
	C49.417274,64.765968 47.256554,80.566284 49.052425,97.933838 
	C49.022663,100.186546 48.994980,101.564682 48.651863,102.743668 
	C47.081894,99.644180 45.827358,96.743858 44.572826,93.843529 
	C44.136642,93.886047 43.700459,93.928566 43.264275,93.971085 
	C43.092964,96.631432 42.921654,99.291771 42.574776,102.022736 
	C42.165108,102.231216 42.023956,102.433861 41.699226,102.747040 
	C41.051891,102.836639 40.681099,102.880463 40.270920,102.586716 
	C39.843082,101.534866 39.454632,100.820602 39.028336,99.745575 
	C38.696697,98.256485 38.402901,97.128151 37.721355,95.975792 
	C36.988487,97.402748 36.643372,98.853729 35.979584,100.296745 
	C33.039631,100.191917 29.741058,98.406021 28.986753,102.965065 
	C25.206070,102.795387 21.425385,102.625710 17.545774,102.015923 
	C17.631403,101.049965 17.815958,100.524109 18.000511,99.998260 
	C20.559277,99.587296 23.118042,99.176338 25.844755,98.369904 
	C26.012705,97.974426 26.096609,97.884651 26.401031,97.783775 
	C26.479628,96.815430 26.253799,95.947968 26.027973,95.080498 
z"/>
<path fill="#39515C" opacity="1.000000" stroke="none" 
	d="
M96.238922,99.338516 
	C104.278168,100.550575 107.231270,99.708954 108.639389,94.993057 
	C109.242470,92.973305 108.543495,90.447449 109.440193,88.653381 
	C112.962769,81.605652 110.587830,75.069313 108.479630,68.374985 
	C108.011917,66.889832 108.374031,65.136986 108.388985,63.507721 
	C108.410118,61.204102 108.174004,58.847298 108.586456,56.612640 
	C108.984077,54.458431 110.065781,52.430485 111.009827,50.011124 
	C111.994659,55.080112 112.816597,60.485043 113.638535,65.889969 
	C113.159599,66.024750 112.680664,66.159523 112.201729,66.294304 
	C112.793221,66.518814 113.368866,66.807533 113.978645,66.957932 
	C120.136803,68.476852 125.496902,71.354553 126.924057,77.960327 
	C128.538864,85.434616 126.397713,92.117737 120.352654,97.199730 
	C113.852150,102.664604 106.074127,103.100998 98.141304,102.524788 
	C97.455299,102.474960 96.894020,100.707878 96.238922,99.338516 
z"/>
<path fill="#374E58" opacity="1.000000" stroke="none" 
	d="
M54.998566,93.995094 
	C51.364761,93.467957 52.797146,90.841591 53.149246,88.998886 
	C54.050438,84.282547 55.343346,79.640953 56.240494,74.923996 
	C56.450939,73.817497 55.714638,72.530930 54.893593,71.414513 
	C56.006485,67.614769 61.904846,66.250679 61.039112,60.328720 
	C61.115284,59.943790 61.080002,59.915237 61.080002,59.915237 
	C62.056767,60.925507 63.390209,61.768734 63.953953,62.972439 
	C68.521217,72.724388 72.944084,82.543976 77.076881,92.737984 
	C76.457413,93.173782 76.172043,93.214539 75.622681,93.356575 
	C75.201714,93.998222 75.044731,94.538589 74.650360,95.266998 
	C74.238335,96.026352 74.063713,96.597664 73.593262,96.968399 
	C72.191391,94.939217 71.085327,93.110611 69.444946,90.398621 
	C68.141884,93.299408 67.074921,95.674599 65.676361,98.022049 
	C63.621975,97.614021 61.899197,97.233727 60.157833,96.537750 
	C60.078609,95.805824 60.017971,95.389595 60.004784,94.539909 
	C60.052238,91.824104 60.052238,89.541748 60.052238,87.259392 
	C59.541615,87.238388 59.030991,87.217392 58.520367,87.196388 
	C58.327415,88.456787 58.134464,89.717194 57.625237,91.033928 
	C56.538826,92.058533 55.768696,93.026810 54.998566,93.995094 
z"/>
<path fill="#BEBDB5" opacity="1.000000" stroke="none" 
	d="
M70.991356,34.550331 
	C73.223846,34.810734 75.972755,34.886505 77.590225,36.277729 
	C81.952187,40.029575 86.023735,44.172276 89.841957,48.486095 
	C92.844887,51.878807 94.571243,56.982479 100.989243,54.382652 
	C95.635750,58.164753 93.756721,57.960457 90.160316,53.978893 
	C85.288513,48.585331 80.679268,42.770473 72.313065,41.895275 
	C71.614487,39.634876 71.303139,37.300240 70.991356,34.550331 
z"/>
<path fill="#BCBBB3" opacity="1.000000" stroke="none" 
	d="
M55.988304,29.135536 
	C57.162552,28.452923 58.824337,28.060024 59.430550,27.039865 
	C62.912666,21.180016 62.827793,21.129581 68.968048,24.912659 
	C67.439743,27.673218 65.889595,30.473246 64.203720,33.579456 
	C60.403183,34.179424 56.701656,34.930401 53.083744,34.639938 
	C49.377678,34.342400 50.496040,31.770393 51.856911,29.300713 
	C52.175640,28.997360 52.346638,29.003456 52.767738,29.440548 
	C53.475372,30.774820 53.932896,31.678097 54.390423,32.581371 
	C54.923050,31.432760 55.455677,30.284149 55.988304,29.135536 
z"/>
<path fill="#A9ABA6" opacity="1.000000" stroke="none" 
	d="
M85.984245,98.669662 
	C87.174713,96.238647 88.317215,94.174149 89.218803,92.544983 
	C91.277657,94.759598 92.894920,96.499229 94.761681,98.487328 
	C94.465790,102.541252 96.846603,107.248741 91.706543,109.718979 
	C89.488029,109.477959 89.878685,103.163200 85.243477,108.665100 
	C85.544235,104.484985 85.740257,101.760582 85.984245,98.669662 
z"/>
<path fill="#A0A39E" opacity="1.000000" stroke="none" 
	d="
M55.078564,94.250015 
	C55.768696,93.026810 56.538826,92.058533 57.857300,91.265800 
	C58.922871,92.618683 59.440102,93.796021 59.957333,94.973358 
	C60.017971,95.389595 60.078609,95.805824 59.884144,96.836014 
	C59.443100,99.625595 59.257156,101.801216 59.046810,104.379974 
	C59.022961,105.857384 59.023514,106.931671 59.016243,108.442734 
	C58.996117,110.917015 58.983814,112.954506 58.778507,115.117508 
	C58.344181,115.438248 58.146267,115.670471 57.991760,115.939682 
	C57.514549,116.235580 57.037342,116.531487 56.275673,116.454529 
	C55.934326,109.374519 55.877441,102.667389 55.820557,95.960251 
	C55.599892,95.475143 55.379227,94.990044 55.078564,94.250015 
z"/>
<path fill="#BEBDB5" opacity="1.000000" stroke="none" 
	d="
M55.546204,95.969833 
	C55.877441,102.667389 55.934326,109.374519 56.008499,116.542267 
	C56.025784,117.002869 56.006638,117.011559 55.767761,117.127640 
	C55.345314,117.526558 55.161747,117.809387 54.978180,118.092216 
	C54.835728,118.341888 54.654922,118.559738 53.911392,118.858017 
	C52.922443,118.976456 52.457878,118.982613 51.993309,118.988770 
	C51.763474,118.617996 51.533638,118.247215 51.337944,117.290955 
	C51.285728,112.451088 51.199368,108.196709 51.211800,103.746460 
	C51.496971,103.319565 51.718960,103.130287 52.220993,102.992699 
	C52.465424,103.002632 52.954388,103.019852 53.335278,102.853485 
	C53.867416,100.454010 54.018665,98.220909 54.169914,95.987808 
	C54.537228,95.985016 54.904537,95.982216 55.546204,95.969833 
z"/>
<path fill="#6C7577" opacity="1.000000" stroke="none" 
	d="
M77.918198,121.237717 
	C77.473228,121.715576 77.092766,121.755074 76.370567,121.470398 
	C75.298271,119.843834 74.567719,118.541451 74.117966,117.002686 
	C74.579750,115.832161 74.760727,114.898010 74.958580,113.516586 
	C75.016670,110.357361 75.057892,107.645424 75.391907,104.851730 
	C76.440933,104.547913 77.197159,104.325844 77.953392,104.103775 
	C77.963165,109.668968 77.972939,115.234161 77.918198,121.237717 
z"/>
<path fill="#B1B1AB" opacity="1.000000" stroke="none" 
	d="
M77.883209,103.890854 
	C77.197159,104.325844 76.440933,104.547913 75.293488,104.604156 
	C74.608177,104.295113 74.314079,104.151894 73.908035,103.900780 
	C73.628784,103.497505 73.692017,103.234985 74.357742,102.820053 
	C74.782379,100.116180 74.835060,97.597565 74.887741,95.078957 
	C75.044731,94.538589 75.201714,93.998222 75.650734,93.784187 
	C76.360344,97.087944 76.777908,100.065361 77.195473,103.042786 
	C77.463768,103.193787 77.669624,103.405495 77.883209,103.890854 
z"/>
<path fill="#8A908D" opacity="1.000000" stroke="none" 
	d="
M77.175865,102.624222 
	C76.777908,100.065361 76.360344,97.087944 75.914726,93.682907 
	C76.172043,93.214539 76.457413,93.173782 77.175339,93.121765 
	C77.457352,96.142227 77.306808,99.173935 77.175865,102.624222 
z"/>
<path fill="#BEBDB5" opacity="1.000000" stroke="none" 
	d="
M48.967300,102.942825 
	C48.994980,101.564682 49.022663,100.186546 49.111179,98.398476 
	C50.155857,97.992111 51.139702,97.995682 52.532143,98.311356 
	C52.659340,99.409500 52.377937,100.195541 51.727058,101.002014 
	C50.959526,102.040581 50.561466,103.058701 50.128147,104.058853 
	C50.092888,104.040886 50.018486,104.013893 49.808353,103.872849 
	C49.387913,103.468811 49.177605,103.205818 48.967300,102.942825 
z"/>
<path fill="#3A515A" opacity="1.000000" stroke="none" 
	d="
M52.096531,100.981583 
	C52.377937,100.195541 52.659340,99.409500 52.901928,98.307518 
	C53.166035,97.161125 53.468956,96.330681 53.970894,95.744019 
	C54.018665,98.220909 53.867416,100.454010 53.326149,102.541962 
	C52.630966,101.906342 52.325806,101.415863 52.023804,100.960701 
	C52.026962,100.996017 52.096531,100.981583 52.096531,100.981583 
z"/>
<path fill="#3A515B" opacity="1.000000" stroke="none" 
	d="
M42.932537,39.950165 
	C42.834541,39.515877 42.856369,38.827667 43.217476,38.114971 
	C43.388622,38.625736 43.220493,39.160988 42.932537,39.950165 
z"/>
<path fill="#3A515B" opacity="1.000000" stroke="none" 
	d="
M43.993935,36.962669 
	C43.883018,36.537388 43.894588,35.872871 44.235458,35.191425 
	C44.415310,35.690807 44.265865,36.207123 43.993935,36.962669 
z"/>
<path fill="#3A515B" opacity="1.000000" stroke="none" 
	d="
M41.900158,42.957146 
	C41.796230,42.518219 41.818970,41.823936 42.176823,41.096241 
	C42.350231,41.609150 42.188530,42.155472 41.900158,42.957146 
z"/>
<path fill="#3A515B" opacity="1.000000" stroke="none" 
	d="
M46.002548,31.735397 
	C45.742748,31.884045 45.512798,31.728518 45.172325,31.375809 
	C45.358505,31.302488 45.682037,31.386684 46.002548,31.735397 
z"/>
<path fill="#374E58" opacity="1.000000" stroke="none" 
	d="
M61.138039,59.937176 
	C61.160793,59.930561 60.993408,60.012268 61.036705,59.963753 
	C61.080002,59.915237 61.115284,59.943790 61.138039,59.937176 
z"/>
<path fill="#3A515B" opacity="1.000000" stroke="none" 
	d="
M17.793636,99.798187 
	C17.815958,100.524109 17.631403,101.049965 17.247643,101.775925 
	C7.803570,100.760315 3.261606,95.041161 2.887685,85.922264 
	C2.593259,78.742004 4.858923,73.426308 10.618309,69.284805 
	C11.480303,68.664963 11.799028,66.918587 11.883936,65.660606 
	C12.113251,62.263149 12.080879,58.848030 12.659769,55.125278 
	C14.211967,54.444942 15.256731,54.079250 17.050100,53.451523 
	C17.519800,56.229317 18.690933,58.859917 18.222828,61.156380 
	C16.512550,69.546783 13.939903,77.765350 12.331825,86.171036 
	C11.466732,90.693039 12.079257,95.392616 16.999390,98.000000 
	C17.195181,98.532707 17.390970,99.065407 17.793636,99.798187 
z"/>
<path fill="#3A515A" opacity="1.000000" stroke="none" 
	d="
M16.930668,97.615433 
	C12.079257,95.392616 11.466732,90.693039 12.331825,86.171036 
	C13.939903,77.765350 16.512550,69.546783 18.222828,61.156380 
	C18.690933,58.859917 17.519800,56.229317 17.050100,53.451523 
	C15.256731,54.079250 14.211967,54.444942 12.821662,54.831863 
	C14.691499,48.038872 19.247475,43.799202 26.652071,42.329678 
	C26.116024,43.338913 24.620840,44.210144 24.431965,45.306438 
	C23.873390,48.548580 23.131842,52.013809 23.733358,55.147728 
	C24.951241,61.492931 26.601124,67.078583 21.297276,73.056396 
	C18.352612,76.375237 15.560185,81.312233 16.796074,87.028183 
	C17.499546,90.281723 16.883688,93.820526 16.930668,97.615433 
z"/>
<path fill="#A4A7A2" opacity="1.000000" stroke="none" 
	d="
M48.651863,102.743668 
	C49.177605,103.205818 49.387913,103.468811 49.812912,104.277573 
	C49.976273,105.900459 49.924946,106.977592 49.569160,108.043732 
	C48.754128,108.453232 48.243553,108.873718 47.732979,109.294197 
	C48.444866,109.510651 49.156757,109.727097 49.915092,110.334198 
	C49.922237,111.508934 49.882935,112.293037 49.843636,113.077133 
	C48.612255,112.760208 47.380875,112.443275 45.629578,111.992523 
	C45.212166,112.591187 44.443954,113.692970 43.368393,114.883026 
	C42.790611,114.679733 42.520180,114.388184 42.071121,113.499733 
	C41.943607,110.288483 41.994724,107.674133 42.342247,104.955643 
	C42.675884,103.885033 42.713116,102.918571 42.750343,101.952118 
	C42.921654,99.291771 43.092964,96.631432 43.264275,93.971085 
	C43.700459,93.928566 44.136642,93.886047 44.572826,93.843529 
	C45.827358,96.743858 47.081894,99.644180 48.651863,102.743668 
z"/>
<path fill="#B9B9B2" opacity="1.000000" stroke="none" 
	d="
M39.956841,111.009171 
	C38.670567,110.926224 37.384293,110.843285 35.865685,110.745361 
	C35.558994,108.396736 35.270069,106.184151 35.285488,103.539398 
	C36.015671,103.050163 36.441513,102.993103 37.193722,102.937302 
	C37.737610,102.933380 37.955132,102.928192 38.336365,102.923798 
	C38.500080,102.924591 38.823605,102.874123 39.031147,103.097443 
	C39.559444,103.570389 39.880203,103.820015 40.172276,104.502075 
	C40.081341,106.959404 40.019089,108.984291 39.956841,111.009171 
z"/>
<path fill="#7E8584" opacity="1.000000" stroke="none" 
	d="
M36.867352,102.936035 
	C36.441513,102.993103 36.015671,103.050163 35.273598,103.170837 
	C33.173573,103.223969 31.389780,103.213486 29.296370,103.084038 
	C29.741058,98.406021 33.039631,100.191917 36.107101,100.536049 
	C36.657978,101.500893 36.762665,102.218460 36.867352,102.936035 
z"/>
<path fill="#3A515A" opacity="1.000000" stroke="none" 
	d="
M42.565140,17.850510 
	C40.828205,20.121439 38.758728,22.502169 36.350410,24.943298 
	C38.085251,22.655903 40.158924,20.308105 42.565140,17.850510 
z"/>
<path fill="#6C7577" opacity="1.000000" stroke="none" 
	d="
M40.004860,111.317596 
	C40.019089,108.984291 40.081341,106.959404 40.465382,104.458862 
	C41.179134,103.927528 41.571091,103.871857 41.982681,104.127159 
	C42.016823,104.645355 42.031334,104.852570 42.045841,105.059792 
	C41.994724,107.674133 41.943607,110.288483 41.827782,113.325394 
	C41.193008,113.040649 40.622944,112.333328 40.004860,111.317596 
z"/>
<path fill="#3A515A" opacity="1.000000" stroke="none" 
	d="
M31.043388,33.029175 
	C33.417336,34.785339 34.360985,36.670303 30.136766,37.959919 
	C30.115040,36.429035 30.494635,34.875290 31.043388,33.029175 
z"/>
<path fill="#3A515A" opacity="1.000000" stroke="none" 
	d="
M34.388439,26.466938 
	C34.195709,27.400507 33.719296,28.553019 32.830811,29.763229 
	C32.980743,28.775911 33.542747,27.730894 34.388439,26.466938 
z"/>
<path fill="#6C7577" opacity="1.000000" stroke="none" 
	d="
M49.858963,113.482368 
	C49.882935,112.293037 49.922237,111.508934 49.933136,110.019623 
	C49.894363,108.894516 49.883991,108.474617 49.873619,108.054726 
	C49.924946,106.977592 49.976273,105.900459 50.023041,104.418610 
	C50.018486,104.013893 50.092888,104.040886 50.365860,104.028030 
	C50.638828,104.015182 51.113007,103.942329 51.113007,103.942329 
	C51.199368,108.196709 51.285728,112.451088 51.192558,117.126709 
	C50.633450,116.327835 50.253868,115.107719 49.858963,113.482368 
z"/>
<path fill="#A9ABA6" opacity="1.000000" stroke="none" 
	d="
M52.105377,119.251740 
	C52.457878,118.982613 52.922443,118.976456 53.736897,118.980492 
	C53.874058,119.545982 53.661335,120.101280 53.218971,120.852531 
	C52.732029,120.537231 52.474735,120.025970 52.105377,119.251740 
z"/>
<path fill="#A0A39E" opacity="1.000000" stroke="none" 
	d="
M73.985786,103.005325 
	C73.692017,103.234985 73.628784,103.497505 73.879547,104.348267 
	C73.907814,107.589851 73.852623,110.276047 73.441483,112.972389 
	C68.712814,113.110535 70.810745,115.943565 70.807358,118.194626 
	C70.089340,118.964302 69.561317,119.516922 69.033295,120.069542 
	C68.328041,121.452843 67.622787,122.836143 66.878098,124.578186 
	C66.162003,124.961693 65.485336,124.986458 64.471802,124.976913 
	C64.089622,123.859489 64.044319,122.776367 63.991585,121.318459 
	C63.984158,120.943680 63.918297,120.975174 64.289703,120.851898 
	C65.091568,117.482109 65.522026,114.235596 65.961754,110.534332 
	C65.992493,107.036789 66.013954,103.993996 66.210472,100.790268 
	C66.257401,100.086792 66.129280,99.544273 65.990662,98.763672 
	C65.980156,98.525597 66.007965,98.049789 66.007965,98.049789 
	C67.074921,95.674599 68.141884,93.299408 69.444946,90.398621 
	C71.085327,93.110611 72.191391,94.939217 73.631943,97.382515 
	C73.972885,99.666580 73.979332,101.335953 73.985786,103.005325 
z"/>
<path fill="#6C7577" opacity="1.000000" stroke="none" 
	d="
M63.966644,120.911652 
	C63.283882,120.171883 62.618629,119.464134 61.963982,118.026741 
	C61.951256,116.529129 61.927925,115.761169 61.950722,114.559967 
	C62.042759,112.098877 62.088669,110.071030 62.358807,108.007675 
	C62.583031,107.972168 63.011295,107.821358 63.296944,108.032661 
	C63.794094,109.157654 64.005592,110.071342 64.163910,111.436874 
	C64.046593,114.917534 63.982445,117.946350 63.918297,120.975174 
	C63.918297,120.975174 63.984158,120.943680 63.966644,120.911652 
z"/>
<path fill="#B5B6AE" opacity="1.000000" stroke="none" 
	d="
M61.904598,114.993210 
	C61.927925,115.761169 61.951256,116.529129 61.918613,117.678421 
	C60.663189,117.526085 59.463730,116.992416 58.128017,116.199211 
	C58.146267,115.670471 58.344181,115.438248 59.147202,115.120392 
	C60.440796,114.996262 61.172699,114.994736 61.904598,114.993210 
z"/>
<path fill="#A0A39E" opacity="1.000000" stroke="none" 
	d="
M55.205208,117.971603 
	C55.161747,117.809387 55.345314,117.526558 55.758682,117.132164 
	C55.803070,117.297401 55.617653,117.574203 55.205208,117.971603 
z"/>
<path fill="#C5C3BB" opacity="1.000000" stroke="none" 
	d="
M69.220085,120.353897 
	C69.561317,119.516922 70.089340,118.964302 71.083328,118.144135 
	C72.247177,117.659889 72.945045,117.443192 73.691055,117.236046 
	C73.739204,117.245590 73.837158,117.239059 73.837158,117.239059 
	C74.567719,118.541451 75.298271,119.843834 76.083328,121.471558 
	C73.894188,121.410690 71.650528,121.024475 69.220085,120.353897 
z"/>
<path fill="#B1B1AB" opacity="1.000000" stroke="none" 
	d="
M33.968407,68.288055 
	C36.691711,65.454010 35.871490,68.037010 35.546783,69.170959 
	C33.960602,74.710327 32.247688,80.213402 30.234070,85.885933 
	C29.958908,84.284966 30.029264,82.527390 30.295120,80.282463 
	C30.656252,79.538513 30.680765,79.269066 30.564156,78.986778 
	C30.763063,78.350609 30.961969,77.714447 31.411308,76.473259 
	C31.838640,74.951538 32.015537,74.034836 32.192436,73.118134 
	C32.192436,73.118134 32.117355,73.051910 32.366760,72.836990 
	C32.780273,71.760971 32.944386,70.899879 33.108498,70.038788 
	C33.389309,69.551086 33.670128,69.063385 33.968407,68.288055 
z"/>
<path fill="#C5C3BB" opacity="1.000000" stroke="none" 
	d="
M55.623215,29.035822 
	C55.455677,30.284149 54.923050,31.432760 54.390423,32.581371 
	C53.932896,31.678097 53.475372,30.774820 53.014877,29.509790 
	C53.760647,29.077393 54.509388,29.006750 55.623215,29.035822 
z"/>
<path fill="#3A515A" opacity="1.000000" stroke="none" 
	d="
M31.877911,73.158676 
	C32.015537,74.034836 31.838640,74.951538 31.435234,76.140251 
	C31.326946,75.341248 31.445168,74.270226 31.877911,73.158676 
z"/>
<path fill="#3A515A" opacity="1.000000" stroke="none" 
	d="
M32.815422,70.094963 
	C32.944386,70.899879 32.780273,71.760971 32.397522,72.867012 
	C32.293369,72.125023 32.407860,71.138077 32.815422,70.094963 
z"/>
<path fill="#3A515A" opacity="1.000000" stroke="none" 
	d="
M25.969444,98.018051 
	C25.742376,97.421150 25.558569,96.780617 25.680595,96.380569 
	C26.023157,97.042252 26.059881,97.463448 26.096607,97.884651 
	C26.096609,97.884651 26.012705,97.974426 25.969444,98.018051 
z"/>
<path fill="#C5C3BB" opacity="1.000000" stroke="none" 
	d="
M26.401031,97.783775 
	C26.059881,97.463448 26.023157,97.042252 25.929384,96.308685 
	C25.872337,95.996323 26.005295,95.547577 26.016634,95.314041 
	C26.253799,95.947968 26.479628,96.815430 26.401031,97.783775 
z"/>
<path fill="#3A515A" opacity="1.000000" stroke="none" 
	d="
M30.396757,79.031921 
	C30.680765,79.269066 30.656252,79.538513 30.331894,79.932289 
	C30.077311,79.826538 29.954582,79.588951 29.904570,79.336929 
	C29.892134,79.274254 30.114771,79.164940 30.396757,79.031921 
z"/>
<path fill="#B1B1AB" opacity="1.000000" stroke="none" 
	d="
M37.193722,102.937302 
	C36.762665,102.218460 36.657978,101.500893 36.425770,100.544014 
	C36.643372,98.853729 36.988487,97.402748 37.699913,96.408951 
	C38.101696,98.885101 38.137173,100.904053 38.172649,102.923012 
	C37.955132,102.928192 37.737610,102.933380 37.193722,102.937302 
z"/>
<path fill="#003448" opacity="1.000000" stroke="none" 
	d="
M38.336365,102.923798 
	C38.137173,100.904053 38.101696,98.885101 38.087662,96.432983 
	C38.402901,97.128151 38.696697,98.256485 39.008511,100.096138 
	C38.957378,101.503754 38.888226,102.200058 38.842243,102.902573 
	C38.865410,102.908791 38.823605,102.874123 38.823605,102.874123 
	C38.823605,102.874123 38.500080,102.924591 38.336365,102.923798 
z"/>
<path fill="#7E8584" opacity="1.000000" stroke="none" 
	d="
M42.342247,104.955643 
	C42.031334,104.852570 42.016823,104.645355 41.973217,103.849045 
	C41.954670,103.073723 41.965218,102.887505 41.975761,102.701279 
	C42.023956,102.433861 42.165108,102.231216 42.574776,102.022736 
	C42.713116,102.918571 42.675884,103.885033 42.342247,104.955643 
z"/>
<path fill="#A4A7A2" opacity="1.000000" stroke="none" 
	d="
M41.699226,102.747040 
	C41.965218,102.887505 41.954670,103.073723 41.953583,103.538071 
	C41.571091,103.871857 41.179134,103.927528 40.494068,104.026413 
	C39.880203,103.820015 39.559444,103.570389 39.031147,103.097443 
	C38.823605,102.874123 38.865410,102.908791 39.215080,102.924820 
	C39.813267,102.935326 40.061783,102.929802 40.310303,102.924286 
	C40.681099,102.880463 41.051891,102.836639 41.699226,102.747040 
z"/>
<path fill="#B9B9B2" opacity="1.000000" stroke="none" 
	d="
M40.270920,102.586716 
	C40.061783,102.929802 39.813267,102.935326 39.191917,102.918594 
	C38.888226,102.200058 38.957378,101.503754 39.046356,100.456894 
	C39.454632,100.820602 39.843082,101.534866 40.270920,102.586716 
z"/>
<path fill="#B9B9B2" opacity="1.000000" stroke="none" 
	d="
M64.217094,110.985031 
	C64.005592,110.071342 63.794094,109.157654 63.294518,107.660789 
	C62.888901,105.667664 62.771362,104.257713 62.626625,102.521484 
	C61.123940,103.136589 60.097576,103.556717 59.071213,103.976845 
	C59.257156,101.801216 59.443100,99.625595 59.902729,97.151703 
	C61.899197,97.233727 63.621975,97.614021 65.676361,98.022049 
	C66.007965,98.049789 65.980156,98.525597 65.997772,99.088821 
	C66.022072,100.085106 66.028748,100.518158 66.035423,100.951210 
	C66.013954,103.993996 65.992493,107.036789 65.672935,110.536713 
	C64.988930,110.990913 64.603012,110.987976 64.217094,110.985031 
z"/>
<path fill="#B9B9B2" opacity="1.000000" stroke="none" 
	d="
M60.004784,94.539909 
	C59.440102,93.796021 58.922871,92.618683 58.173576,91.209473 
	C58.134464,89.717194 58.327415,88.456787 58.520367,87.196388 
	C59.030991,87.217392 59.541615,87.238388 60.052238,87.259392 
	C60.052238,89.541748 60.052238,91.824104 60.004784,94.539909 
z"/>
<path fill="#003448" opacity="1.000000" stroke="none" 
	d="
M74.357742,102.820053 
	C73.979332,101.335953 73.972885,99.666580 73.927757,97.583084 
	C74.063713,96.597664 74.238335,96.026352 74.650352,95.266998 
	C74.835060,97.597565 74.782379,100.116180 74.357742,102.820053 
z"/>
<path fill="#B9B9B2" opacity="1.000000" stroke="none" 
	d="
M61.950722,114.559967 
	C61.172699,114.994736 60.440796,114.996262 59.340202,114.994888 
	C58.983814,112.954506 58.996117,110.917015 59.403923,108.441818 
	C60.577808,108.017136 61.356194,108.030159 62.134583,108.043182 
	C62.088669,110.071030 62.042759,112.098877 61.950722,114.559967 
z"/>
<path fill="#B5B6AE" opacity="1.000000" stroke="none" 
	d="
M62.358807,108.007675 
	C61.356194,108.030159 60.577808,108.017136 59.411743,108.005028 
	C59.023514,106.931671 59.022961,105.857384 59.046814,104.379974 
	C60.097576,103.556717 61.123940,103.136589 62.626625,102.521484 
	C62.771362,104.257713 62.888901,105.667664 63.008865,107.449486 
	C63.011295,107.821358 62.583031,107.972168 62.358807,108.007675 
z"/>
<path fill="#7E8584" opacity="1.000000" stroke="none" 
	d="
M51.211800,103.746460 
	C51.113007,103.942329 50.638828,104.015182 50.401115,104.046005 
	C50.561466,103.058701 50.959526,102.040581 51.727058,101.002014 
	C52.096531,100.981583 52.026962,100.996017 52.020859,101.304031 
	C52.002026,102.068954 51.989292,102.525856 51.976559,102.982765 
	C51.718960,103.130287 51.496971,103.319565 51.211800,103.746460 
z"/>
<path fill="#A9ABA6" opacity="1.000000" stroke="none" 
	d="
M52.220993,102.992699 
	C51.989292,102.525856 52.002026,102.068954 52.017700,101.268715 
	C52.325806,101.415863 52.630966,101.906342 52.945259,102.708336 
	C52.954388,103.019852 52.465424,103.002632 52.220993,102.992699 
z"/>
<path fill="#003448" opacity="1.000000" stroke="none" 
	d="
M73.797440,112.962242 
	C73.852623,110.276047 73.907814,107.589851 73.991486,104.456161 
	C74.314079,104.151894 74.608177,104.295113 75.000694,104.685905 
	C75.057892,107.645424 75.016670,110.357361 74.750015,113.531517 
	C74.524582,113.993729 74.107117,113.963928 74.047424,113.708023 
	C73.924301,113.288834 73.860870,113.125534 73.797440,112.962242 
z"/>
<path fill="#374E58" opacity="1.000000" stroke="none" 
	d="
M74.107117,113.963928 
	C74.107117,113.963928 74.524582,113.993729 74.733139,113.978798 
	C74.760727,114.898010 74.579750,115.832161 74.117966,117.002686 
	C73.837158,117.239059 73.739204,117.245590 73.777481,116.831841 
	C73.912872,115.600037 74.009995,114.781982 74.107117,113.963928 
z"/>
<path fill="#BEBDB5" opacity="1.000000" stroke="none" 
	d="
M49.569160,108.043732 
	C49.883991,108.474617 49.894363,108.894516 49.886692,109.628983 
	C49.156757,109.727097 48.444866,109.510651 47.732979,109.294197 
	C48.243553,108.873718 48.754128,108.453232 49.569160,108.043732 
z"/>
<path fill="#B5B6AE" opacity="1.000000" stroke="none" 
	d="
M64.163910,111.436874 
	C64.603012,110.987976 64.988930,110.990913 65.663666,110.991470 
	C65.522026,114.235596 65.091568,117.482109 64.289711,120.851898 
	C63.982445,117.946350 64.046593,114.917534 64.163910,111.436874 
z"/>
<path fill="#8A908D" opacity="1.000000" stroke="none" 
	d="
M74.047424,113.708023 
	C74.009995,114.781982 73.912872,115.600037 73.729332,116.822296 
	C72.945045,117.443192 72.247177,117.659889 71.273331,117.927078 
	C70.810745,115.943565 68.712814,113.110535 73.441483,112.972389 
	C73.860870,113.125534 73.924301,113.288834 74.047424,113.708023 
z"/>
<path fill="#8A908D" opacity="1.000000" stroke="none" 
	d="
M66.210472,100.790268 
	C66.028748,100.518158 66.022072,100.085106 66.008286,99.326904 
	C66.129280,99.544273 66.257401,100.086792 66.210472,100.790268 
z"/>
</svg>